/vscmnt/brussel_pixiu_data/_data_brussel/112/vsc11236/PredSimResults/SUBJ09mtu3D/worker4.mot
version=1
nRows=6
nColumns=50
inDegrees=yes
endheader
                time	         pelvis_tilt	         pelvis_list	     pelvis_rotation	           pelvis_tx	           pelvis_ty	           pelvis_tz	       hip_flexion_r	     hip_adduction_r	      hip_rotation_r	        knee_angle_r	       ankle_angle_r	         mtp_angle_r	       hip_flexion_l	     hip_adduction_l	      hip_rotation_l	        knee_angle_l	       ankle_angle_l	         mtp_angle_l	    lumbar_extension	      lumbar_bending	     lumbar_rotation	 ercspn_r/activation	 intobl_r/activation	 extobl_r/activation	    abd_r/activation	    add_r/activation	hamstrings_r/activation	bifemsh_r/activation	glut_max_r/activation	iliopsoas_r/activation	rect_fem_r/activation	  vasti_r/activation	gastroc_r/activation	 soleus_r/activation	tib_ant_r/activation	 ercspn_l/activation	 intobl_l/activation	 extobl_l/activation	    abd_l/activation	    add_l/activation	hamstrings_l/activation	bifemsh_l/activation	glut_max_l/activation	iliopsoas_l/activation	rect_fem_l/activation	  vasti_l/activation	gastroc_l/activation	 soleus_l/activation	tib_ant_l/activation	
          1.20013523	         -2.93386198	         -3.39218478	          7.32993072	          1.48816768	          0.99401170	         -0.00264493	         26.27244099	          1.55794774	         -3.92819374	         -5.52591168	          5.68675527	          0.24615233	        -14.10540174	         -4.70248022	          2.72556670	        -11.50440017	          6.05118223	         34.67954050	        -13.32311984	          1.84541653	         -2.03769611	          0.03134874	          0.17497658	          0.04616439	          0.02570677	          0.15234936	          0.03802201	          0.11372657	          0.08066832	          0.06409866	          0.02836564	          0.01079703	          0.01125654	          0.01000000	          0.27301862	          0.01000021	          0.01000001	          0.01000002	          0.02603626	          0.04005028	          0.01000095	          0.12215191	          0.02073755	          0.30863204	          0.01000068	          0.01000012	          0.27009483	          0.23982305	          0.01007318	
          1.21213658	         -2.93377234	         -3.39012413	          7.24884058	          1.50698256	          0.99195828	         -0.00222286	         26.04127745	          1.76040454	         -3.66472886	         -7.01292690	          5.38130080	          0.20179313	        -14.49086476	         -4.76825433	          2.27841881	        -12.77272973	          5.10553433	         36.35793045	        -12.91975802	          2.17602312	         -2.06044106	          0.02612349	          0.14581109	          0.03846961	          0.09595039	          0.14868680	          0.04428178	          0.09477039	          0.09286202	          0.05341454	          0.02363760	          0.01000001	          0.01628115	          0.01422500	          0.29698867	          0.02597530	          0.01000001	          0.01000004	          0.02169648	          0.03943644	          0.01867704	          0.10179136	          0.01728098	          0.32066763	          0.01000006	          0.01440051	          0.22507481	          0.21786091	          0.00999999	
          1.22413793	         -2.91568986	         -3.38292932	          7.12902438	          1.52590284	          0.99019943	         -0.00175744	         25.72455659	          1.95665707	         -3.42437761	         -8.39660994	          4.95747249	          0.20378467	        -14.61379381	         -4.81527234	          1.82136430	        -14.54733587	          4.05674238	         37.96240135	        -12.52460058	          2.50882505	         -2.06758448	          0.02176923	          0.12150697	          0.03205740	          0.15781801	          0.15956292	          0.04205314	          0.07897387	          0.11200235	          0.04451129	          0.01969763	          0.01000001	          0.01356738	          0.01185394	          0.33067872	          0.03436588	          0.01000001	          0.01000005	          0.01808006	          0.04292269	          0.01840757	          0.08482456	          0.01440055	          0.33191499	          0.01000009	          0.01200025	          0.18755882	          0.18493969	          0.00999999	
          1.23613929	         -2.88119580	         -3.37431092	          6.96999999	          1.54462650	          0.98892190	         -0.00124802	         25.43011261	          2.15324349	         -3.23940875	         -9.79909852	          4.42346107	          0.17520281	        -14.37410989	         -4.84768602	          1.36988913	        -16.96365320	          2.90792998	         39.32817186	        -12.17114389	          2.84888488	         -2.05218468	          0.02000993	          0.10125391	          0.02671400	          0.19015075	          0.18145981	          0.04041609	          0.06581034	          0.11596095	          0.03709204	          0.01641439	          0.07936923	          0.01130596	          0.01000003	          0.35796762	          0.06196073	          0.01000001	          0.01000003	          0.01506643	          0.07303383	          0.01792968	          0.07068583	          0.01200024	          0.32278689	          0.01000004	          0.01000003	          0.15629608	          0.15411352	          0.01000000	
          1.24814064	         -2.83125480	         -3.36527894	          6.77120109	          1.56300491	          0.98824750	         -0.00071953	         25.12687006	          2.34791148	         -3.11519892	        -11.21091883	          4.08502878	          0.14162920	        -13.71245444	         -4.86905873	          0.92783476	        -20.09934165	          1.69486066	         40.13256551	        -11.87374150	          3.19905402	         -2.00912674	          0.01667468	          0.08437667	          0.02226125	          0.20843944	          0.16747642	          0.03930467	          0.05484094	          0.11900760	          0.03090946	          0.01367841	          0.17162838	          0.01000007	          0.01000006	          0.36909412	          0.08067651	          0.01000001	          0.01000005	          0.01255513	          0.09834644	          0.01499250	          0.05890381	          0.01000002	          0.28130235	          0.01000001	          0.01000000	          0.13024429	          0.12842552	          0.01000000	
          1.26014199	         -2.76925556	         -3.35468238	          6.52875516	          1.58093384	          0.98832261	         -0.00021365	         24.72510813	          2.53946311	         -3.03442118	        -12.46225636	          3.97057937	          0.11032040	        -12.61412485	         -4.88292322	          0.49847546	        -23.94073117	          0.41542283	         40.02151287	        -11.64028192	          3.56124270	         -1.93108093	          0.01389534	          0.07031258	          0.01855070	          0.20371322	          0.13956110	          0.03724198	          0.04569994	          0.11727209	          0.02575740	          0.01139847	          0.23686409	          0.01000021	          0.01000016	          0.36342831	          0.08497705	          0.01000001	          0.01650313	          0.01046241	          0.11365653	          0.01505212	          0.04908687	          0.01000000	          0.23441423	          0.01000001	          0.00999999	          0.10853487	          0.10701926	          0.01000000	
